<svg xmlns="http://www.w3.org/2000/svg" width="16" height="15" viewBox="0 0 16 15">
  <metadata><?xpacket begin="﻿" id="W5M0MpCehiHzreSzNTczkc9d"?>
<x:xmpmeta xmlns:x="adobe:ns:meta/" x:xmptk="Adobe XMP Core 5.6-c142 79.160924, 2017/07/13-01:06:39        ">
   <rdf:RDF xmlns:rdf="http://www.w3.org/1999/02/22-rdf-syntax-ns#">
      <rdf:Description rdf:about=""/>
   </rdf:RDF>
</x:xmpmeta>
                                                                                                    
                                                                                                    
                                                                                                    
                                                                                                    
                                                                                                    
                                                                                                    
                                                                                                    
                                                                                                    
                                                                                                    
                                                                                                    
                                                                                                    
                                                                                                    
                                                                                                    
                                                                                                    
                                                                                                    
                                                                                                    
                                                                                                    
                                                                                                    
                                                                                                    
                                                                                                    
                           
<?xpacket end="w"?></metadata>
<defs>
    <style>
      .cls-1 {
        fill: #fff;
        fill-rule: evenodd;
      }
    </style>
  </defs>
  <path id="_" data-name="" class="cls-1" d="M12.367,1.133A8.8,8.8,0,0,1,13.488,2.5a9.1,9.1,0,0,1,1.336,3.234,8.915,8.915,0,0,1,0,3.523A9.1,9.1,0,0,1,13.488,12.5a8.805,8.805,0,0,1-1.121,1.371l0.7,0.7a9.8,9.8,0,0,0,1.246-1.523,10.227,10.227,0,0,0,.918-1.723A9.85,9.85,0,0,0,15.8,9.457a10.1,10.1,0,0,0,0-3.914,9.853,9.853,0,0,0-.566-1.867,10.227,10.227,0,0,0-.918-1.723A9.8,9.8,0,0,0,13.07.43ZM10.242,3.258a6,6,0,0,1,0,8.484l0.711,0.711a6.808,6.808,0,0,0,.871-1.066,7.119,7.119,0,0,0,1.039-2.516,6.925,6.925,0,0,0,0-2.738,7.08,7.08,0,0,0-.4-1.312,7.146,7.146,0,0,0-.641-1.207,6.808,6.808,0,0,0-.871-1.066ZM8.125,5.375a2.95,2.95,0,0,1,.648.973,3.044,3.044,0,0,1,0,2.3,2.95,2.95,0,0,1-.648.973l0.7,0.7a4,4,0,0,0,0-5.656ZM2.289,4.5H0v6H2.289l3,3H6V1.5H5.289Z"/>
</svg>
